<?xml version="1.0" standalone="no"?>
<!DOCTYPE svg PUBLIC "-//W3C//DTD SVG 20010904//EN"
 "http://www.w3.org/TR/2001/REC-SVG-20010904/DTD/svg10.dtd">
<svg version="1.0" xmlns="http://www.w3.org/2000/svg"
 width="512.000000pt" height="512.000000pt" viewBox="0 0 512.000000 512.000000"
 preserveAspectRatio="xMidYMid meet">
<metadata>
Created by potrace 1.11, written by Peter Selinger 2001-2013
</metadata>
<g transform="translate(0.000000,512.000000) scale(0.100000,-0.100000)"
fill="#000000" stroke="none">
<path d="M2439 4315 c-2 -1 -26 -6 -54 -10 -27 -3 -83 -17 -123 -31 -224 -75
-419 -231 -530 -426 l-32 -56 -39 14 c-97 33 -254 43 -371 22 -148 -26 -303
-106 -415 -215 -140 -135 -235 -349 -239 -534 0 -33 -2 -35 -30 -34 -54 3
-169 -26 -242 -60 -151 -72 -259 -185 -326 -345 -27 -65 -31 -90 -36 -193 -3
-71 0 -142 7 -180 33 -173 177 -356 342 -435 100 -47 157 -62 262 -65 l78 -2
25 59 c23 54 94 175 119 203 5 6 32 36 59 67 83 97 225 192 377 255 44 18 48
22 64 77 42 146 152 323 275 443 217 212 478 322 770 325 l135 2 55 59 c153
166 309 268 535 351 75 27 186 51 285 60 36 4 67 8 69 10 5 5 -95 209 -111
225 -7 8 -26 32 -43 54 -74 100 -197 201 -322 264 -94 48 -134 61 -258 86 -61
12 -277 20 -286 10z"/>
<path d="M3315 3340 c-249 -56 -451 -195 -594 -408 -27 -40 -51 -78 -54 -85
-3 -9 -21 -7 -73 7 -83 23 -257 30 -340 15 -338 -62 -599 -331 -650 -670 -3
-19 -7 -51 -9 -70 -2 -19 -4 -36 -4 -39 -1 -3 -21 -6 -46 -7 -142 -4 -329 -96
-425 -206 -79 -92 -139 -215 -157 -322 -12 -66 -9 -176 6 -250 36 -174 178
-355 342 -433 150 -71 39 -67 1659 -67 806 0 1483 4 1505 8 226 48 437 205
542 403 75 143 98 240 96 409 -1 114 -23 206 -78 320 -101 211 -271 356 -494
423 l-65 19 -2 55 c-9 244 -103 458 -279 635 -125 124 -249 197 -425 250 -116
34 -334 41 -455 13z"/>
</g>
</svg>
